 <svg className='text-white mt-2 mr-2' width="10" height="7" viewBox="0 0 10 7" fill="none" xmlns="http://www.w3.org/2000/svg">
                    <path d="M1.33669 6.70002H9.35685C9.43805 6.69977 9.51764 6.67737 9.58706 6.63525C9.65648 6.59312 9.7131 6.53286 9.75082 6.46095C9.78854 6.38904 9.80593 6.30821 9.80112 6.22715C9.79632 6.14609 9.7695 6.06788 9.72355 6.00093L5.71347 0.208592C5.54727 -0.0315669 5.14716 -0.0315669 4.98052 0.208592L0.970435 6.00093C0.924019 6.06774 0.896799 6.14599 0.891733 6.22719C0.886667 6.30838 0.90395 6.38941 0.941703 6.46147C0.979455 6.53353 1.03623 6.59387 1.10587 6.63592C1.17551 6.67798 1.25534 6.70015 1.33669 6.70002Z" fill="#2E1619" />
                  </svg>